<svg width="60" height="60" viewBox="0 0 60 60" fill="none" xmlns="http://www.w3.org/2000/svg">
  <path d="M29.9656 0C24.9479 0.000198271 19.9526 1.53593 10.5654 4.42184L9.35742 4.79321V21.1369C9.35747 21.3922 9.36145 21.6545 9.36966 21.923C10.1244 20.9915 11.2132 20.3014 12.0339 19.9104V6.78601C21.1046 3.99984 25.5464 2.69276 29.9656 2.69258C34.3848 2.69276 38.8265 3.99984 47.8973 6.78601V19.9104C48.718 20.3014 49.8068 20.9915 50.5615 21.923C50.5697 21.6545 50.5736 21.3922 50.5738 21.1369V4.79321L49.3658 4.42184C39.9786 1.53593 34.9833 0.000198271 29.9656 0Z" fill="#659961"/>
  <path fill-rule="evenodd" clip-rule="evenodd" d="M35.8823 11.5375C35.8823 14.7236 33.3006 17.3063 30.116 17.3063C26.9313 17.3063 24.3496 14.7236 24.3496 11.5375C24.3496 8.35147 26.9313 5.76868 30.116 5.76868C33.3006 5.76868 35.8823 8.35147 35.8823 11.5375ZM32.7109 11.5375C32.7109 12.9712 31.5491 14.1335 30.116 14.1335C28.6829 14.1335 27.5211 12.9712 27.5211 11.5375C27.5211 10.1038 28.6829 8.94154 30.116 8.94154C31.5491 8.94154 32.7109 10.1038 32.7109 11.5375Z" fill="#659961"/>
  <path fill-rule="evenodd" clip-rule="evenodd" d="M22.6178 14.7104C22.6178 16.9406 20.8106 18.7487 18.5814 18.7487C16.3521 18.7487 14.5449 16.9406 14.5449 14.7104C14.5449 12.4802 16.3521 10.6722 18.5814 10.6722C20.8106 10.6722 22.6178 12.4802 22.6178 14.7104ZM20.3113 14.7104C20.3113 15.6662 19.5369 16.4411 18.5814 16.4411C17.626 16.4411 16.8514 15.6662 16.8514 14.7104C16.8514 13.7546 17.626 12.9798 18.5814 12.9798C19.5369 12.9798 20.3113 13.7546 20.3113 14.7104Z" fill="#659961"/>
  <path fill-rule="evenodd" clip-rule="evenodd" d="M41.6478 18.7487C43.8772 18.7487 45.6843 16.9406 45.6843 14.7104C45.6843 12.4802 43.8772 10.6722 41.6478 10.6722C39.4186 10.6722 37.6113 12.4802 37.6113 14.7104C37.6113 16.9406 39.4186 18.7487 41.6478 18.7487ZM41.6478 16.4411C42.6033 16.4411 43.3778 15.6662 43.3778 14.7104C43.3778 13.7546 42.6033 12.9798 41.6478 12.9798C40.6924 12.9798 39.918 13.7546 39.918 14.7104C39.918 15.6662 40.6924 16.4411 41.6478 16.4411Z" fill="#659961"/>
  <path d="M0.625032 26.895C5.11146 36.8864 8.45535 42.5002 19.7781 48.6314L19.7818 48.62C7.18866 40.8146 -0.472137 28.0796 7.78473 16.4412C6.99213 34.3245 13.8986 44.997 29.9657 52.0638C46.0329 44.997 52.9394 34.3245 52.1468 16.4412C60.4036 28.0796 52.7428 40.8146 40.1497 48.62L40.1534 48.6314C51.4761 42.5002 54.8201 36.8864 59.3064 26.895C63.2597 40.4692 47.6143 48.232 36.1697 51.8224C44.9332 50.9629 51.6285 47.2431 58.2172 40.0699C57.7792 51.5638 43.4592 53.378 33.8579 53.1422C40.2372 54.4088 46.3232 53.4313 53.2471 50.3391C49.3282 58.5202 39.3993 56.9798 31.5881 54.0436C35.8346 56.2915 40.5952 57.288 46.3613 57.3108C42.0272 60.9582 37.0875 59.9236 32.6278 57.2005C33.6865 58.1665 34.9053 59.0641 36.2992 59.9236C34.0293 60.2736 32.1746 59.3836 30.8111 57.9915C30.6017 58.9194 30.3086 59.6648 29.9659 59.7639C29.6232 59.6648 29.3298 58.9194 29.1204 57.9915C27.7569 59.3836 25.9022 60.2736 23.6323 59.9236C25.0262 59.0641 26.245 58.1665 27.3037 57.2005C22.844 59.9236 17.9043 60.9582 13.5702 57.3108C19.3363 57.288 24.0969 56.2915 28.3434 54.0436C20.5322 56.9798 10.6034 58.5202 6.68439 50.3391C13.6083 53.4313 19.6943 54.4088 26.0736 53.1422C16.4723 53.378 2.15225 51.5638 1.71427 40.0699C8.303 47.2431 14.9983 50.9629 23.7618 51.8224C12.3172 48.232 -3.3282 40.4692 0.625032 26.895Z" fill="#659961"/>
  <path d="M29.9654 49.0385L32.5518 53.9336L29.9654 58.8289L27.3789 53.9336L29.9654 49.0385Z" fill="#659961"/>
  <path d="M41.0414 25.3866V43.337C40.0688 44.2152 39.0064 45.062 37.8464 45.8652V25.3866C37.8464 23.9523 36.6762 22.7896 35.2325 22.7896H24.7766C23.3329 22.7896 22.1626 23.9523 22.1626 25.3866V45.7751C21.0032 44.9663 19.9406 44.1144 18.9678 43.2312V25.3866C18.9678 22.1992 21.5684 19.6152 24.7766 19.6152H35.2325C38.4406 19.6152 41.0414 22.1992 41.0414 25.3866Z" fill="#659961"/>
  <path d="M11.9951 33.9614C10.5253 30.902 9.72804 27.9156 9.35742 25.3843C10.0984 23.0441 12.2995 21.3468 14.8995 21.3468H17.7302C17.2225 22.2187 16.874 23.1937 16.7246 24.2324H14.8995C13.2955 24.2324 11.9951 25.5245 11.9951 27.1182V33.9614Z" fill="#659961"/>
  <path d="M47.9353 33.9614C49.405 30.902 50.2024 27.9156 50.573 25.3843C49.832 23.0441 47.6309 21.3468 45.0309 21.3468H42.2002C42.7079 22.2187 43.0563 23.1937 43.2058 24.2324H45.0309C46.6349 24.2324 47.9353 25.5245 47.9353 27.1182V33.9614Z" fill="#659961"/>
</svg>
